<svg xmlns="http://www.w3.org/2000/svg" width="810" viewBox="0 0 810 810" height="810" version="1.0"><defs><clipPath id="a"><path d="M 269 641 L 350 641 L 350 675.34375 L 269 675.34375 Z M 269 641"/></clipPath><clipPath id="b"><path d="M 269 618 L 353 618 L 353 675.34375 L 269 675.34375 Z M 269 618"/></clipPath></defs><path fill="#FFF" d="M-81 -81H891V891H-81z"/><path fill="#FFF" d="M-81 -81H891V891H-81z"/><path fill="#FFF" d="M-81 -81H891V891H-81z"/><path fill="#F28A8D" d="M 522.289062 564.671875 L 522.292969 564.675781 L 500.40625 587.023438 L 513.382812 600.972656 C 514.492188 611.855469 506.042969 629.097656 505.328125 641.253906 C 504.617188 653.398438 512.242188 660.28125 512.242188 660.28125 L 541.4375 623.117188 L 542.269531 607.550781 L 549.21875 613.015625 L 557.984375 601.808594 Z M 522.289062 564.671875"/><path fill="#F28A8D" d="M 379.164062 330.492188 C 371.882812 329.355469 365.066406 334.335938 363.929688 341.617188 L 317.546875 638.515625 C 309.6875 646.117188 290.917969 650.125 280.925781 657.074219 C 270.941406 664.019531 270.246094 674.273438 270.246094 674.273438 L 317.488281 674.273438 L 330.234375 665.308594 L 330.234375 674.152344 L 344.457031 674.121094 L 390.285156 345.738281 C 391.421875 338.457031 386.445312 331.628906 379.164062 330.492188 Z M 379.164062 330.492188"/><path fill="#7BC9C0" d="M 348.707031 642.125 C 348.707031 642.125 328.789062 648.75 316.894531 652.703125 C 294.144531 660.265625 289.730469 652.335938 289.726562 652.328125 C 286.453125 653.796875 283.414062 655.34375 280.925781 657.074219 C 270.941406 664.019531 270.246094 674.273438 270.246094 674.273438 L 317.488281 674.273438 L 330.234375 665.308594 L 330.234375 674.152344 L 344.457031 674.121094 Z M 348.707031 642.125"/><path fill="#19055B" d="M 320.222656 344.578125 C 319.660156 344.578125 319.1875 344.136719 319.15625 343.566406 C 317.59375 314 314.980469 299.894531 310.9375 299.171875 C 310.355469 299.066406 309.96875 298.511719 310.070312 297.929688 C 310.175781 297.347656 310.730469 296.960938 311.3125 297.066406 C 316.003906 297.90625 319.308594 305.957031 321.292969 343.453125 C 321.324219 344.042969 320.871094 344.542969 320.28125 344.574219 C 320.261719 344.578125 320.242188 344.578125 320.222656 344.578125 Z M 320.222656 344.578125"/><path fill="#19055B" d="M 298.726562 340.734375 C 298.671875 340.734375 298.613281 340.730469 298.558594 340.722656 C 297.972656 340.628906 297.578125 340.078125 297.671875 339.496094 C 301.121094 317.996094 303.757812 297.679688 299.726562 294.621094 C 299.257812 294.261719 299.164062 293.59375 299.519531 293.121094 C 299.875 292.652344 300.546875 292.554688 301.019531 292.914062 C 305.210938 296.097656 304.898438 307.9375 299.78125 339.835938 C 299.695312 340.359375 299.242188 340.734375 298.726562 340.734375 Z M 298.726562 340.734375"/><path fill="#19055B" d="M 358.972656 203.800781 C 358.972656 203.800781 349.644531 239.039062 368.78125 245.0625 C 376.914062 247.621094 402.875 245.488281 402.875 245.488281 L 389.953125 193.253906 Z M 358.972656 203.800781"/><path fill="#F28A8D" d="M 335.519531 333.351562 C 328.894531 333.351562 318.4375 331.355469 300.675781 323.507812 C 288.191406 317.988281 277.746094 312.085938 277.308594 311.835938 C 271.402344 308.492188 269.328125 300.988281 272.675781 295.082031 C 276.019531 289.175781 283.515625 287.101562 289.417969 290.445312 C 306.28125 299.992188 325.945312 307.976562 333.929688 308.746094 C 336.609375 304.300781 340.757812 294.257812 343.644531 287.265625 C 354.425781 261.164062 361.71875 245.066406 375.253906 243 C 381.964844 241.980469 388.230469 246.589844 389.25 253.300781 C 390.167969 259.324219 386.550781 264.992188 380.949219 266.828125 C 376.980469 270.925781 370.113281 287.550781 366.351562 296.652344 C 357.753906 317.472656 352.5625 330.035156 341.984375 332.609375 C 340.3125 333.015625 338.238281 333.351562 335.519531 333.351562 Z M 378.96875 267.300781 C 378.964844 267.304688 378.960938 267.304688 378.957031 267.304688 C 378.960938 267.304688 378.964844 267.304688 378.96875 267.300781 Z M 378.96875 267.300781"/><path fill="#F28A8D" d="M 382.820312 193.597656 L 417.394531 193.597656 L 417.394531 244.894531 L 382.820312 244.894531 Z M 382.820312 193.597656"/><path fill="#F28A8D" d="M 367 326.21875 C 367 326.21875 350.519531 297.128906 355.550781 281.789062 C 362.140625 261.703125 372.042969 243.8125 372.042969 243.8125 L 382.816406 238.628906 L 417.460938 237.773438 C 417.460938 237.773438 429.316406 243.78125 432.855469 250.078125 C 446.308594 273.988281 428.585938 326.21875 428.585938 326.21875 Z M 367 326.21875"/><path fill="#19055B" d="M 368.96875 147.960938 C 368.96875 147.960938 340.078125 154.941406 355.851562 188.980469 L 369.136719 186.089844 Z M 368.96875 147.960938"/><path fill="#19055B" d="M 417.023438 203.453125 C 417.023438 203.453125 371.988281 168 368.988281 150.34375 C 366.835938 137.691406 396.359375 136.078125 420.230469 147.648438 C 430.722656 152.734375 447.457031 172.511719 428.285156 193.597656 Z M 417.023438 203.453125"/><path fill="#F28A8D" d="M 375.222656 194.964844 C 375.230469 195.625 375.171875 196.28125 375.039062 196.925781 C 374.910156 197.574219 374.714844 198.207031 374.449219 198.820312 C 374.1875 199.429688 373.859375 200.015625 373.472656 200.566406 C 373.085938 201.121094 372.644531 201.632812 372.148438 202.105469 C 371.652344 202.578125 371.109375 203.003906 370.523438 203.378906 C 369.9375 203.75 369.320312 204.070312 368.664062 204.332031 C 368.011719 204.589844 367.339844 204.792969 366.644531 204.929688 C 365.949219 205.066406 365.246094 205.140625 364.535156 205.152344 C 363.824219 205.160156 363.117188 205.105469 362.417969 204.988281 C 361.71875 204.867188 361.039062 204.6875 360.378906 204.445312 C 359.71875 204.199219 359.089844 203.898438 358.496094 203.542969 C 357.898438 203.183594 357.347656 202.777344 356.839844 202.316406 C 356.328125 201.855469 355.875 201.355469 355.472656 200.8125 C 355.070312 200.269531 354.726562 199.699219 354.445312 199.09375 C 354.167969 198.488281 353.953125 197.863281 353.804688 197.21875 C 353.65625 196.574219 353.578125 195.921875 353.570312 195.261719 C 353.5625 194.605469 353.621094 193.949219 353.75 193.300781 C 353.882812 192.652344 354.078125 192.023438 354.34375 191.410156 C 354.605469 190.796875 354.929688 190.214844 355.320312 189.660156 C 355.707031 189.109375 356.148438 188.59375 356.644531 188.121094 C 357.140625 187.648438 357.683594 187.226562 358.269531 186.851562 C 358.855469 186.476562 359.472656 186.160156 360.125 185.898438 C 360.78125 185.636719 361.453125 185.4375 362.148438 185.300781 C 362.84375 185.160156 363.546875 185.089844 364.257812 185.078125 C 364.96875 185.070312 365.675781 185.125 366.375 185.242188 C 367.074219 185.359375 367.753906 185.542969 368.414062 185.785156 C 369.074219 186.027344 369.699219 186.328125 370.296875 186.6875 C 370.894531 187.046875 371.445312 187.453125 371.953125 187.914062 C 372.464844 188.371094 372.917969 188.875 373.320312 189.414062 C 373.722656 189.957031 374.066406 190.53125 374.34375 191.136719 C 374.625 191.742188 374.839844 192.367188 374.988281 193.011719 C 375.136719 193.65625 375.214844 194.308594 375.222656 194.964844 Z M 375.222656 194.964844"/><path fill="#F28A8D" d="M 389.9375 226.9375 L 388.21875 226.960938 C 372.769531 227.171875 360.078125 214.8125 359.867188 199.355469 L 359.648438 183.515625 C 359.4375 168.058594 371.792969 155.359375 387.238281 155.148438 L 388.957031 155.125 C 404.40625 154.914062 417.097656 167.273438 417.308594 182.726562 L 417.527344 198.566406 C 417.738281 214.023438 405.386719 226.726562 389.9375 226.9375 Z M 389.9375 226.9375"/><path fill="#F28A8D" d="M 292.3125 291.203125 C 292.3125 291.203125 281.628906 284.625 278.484375 275.757812 C 277.394531 272.6875 272.65625 261.699219 268.574219 267.292969 C 266.761719 269.78125 269.753906 276.265625 271.289062 279.300781 C 271.289062 279.300781 267.90625 279.054688 262.914062 268.679688 C 262.082031 266.945312 257.117188 262.667969 255.246094 269.148438 C 255.246094 269.148438 249.9375 268.324219 250.058594 274.933594 C 250.058594 274.933594 244.042969 274.578125 245.691406 282.367188 C 245.691406 282.367188 237.097656 283.285156 248.640625 296.363281 C 254.886719 303.4375 274.96875 314.359375 283.710938 316.496094 Z M 292.3125 291.203125"/><path fill="#19055B" d="M 368.96875 147.960938 C 368.96875 147.960938 361.855469 169.78125 409.046875 176.429688 C 409.046875 176.429688 406.011719 196.992188 422.074219 193.101562 C 422.074219 193.101562 435.230469 134.640625 368.96875 147.960938 Z M 368.96875 147.960938"/><path fill="#F28A8D" d="M 428.285156 193.597656 C 428.296875 194.257812 428.234375 194.910156 428.105469 195.558594 C 427.976562 196.207031 427.777344 196.835938 427.515625 197.449219 C 427.25 198.0625 426.925781 198.644531 426.539062 199.199219 C 426.152344 199.753906 425.707031 200.265625 425.210938 200.738281 C 424.714844 201.210938 424.175781 201.632812 423.589844 202.007812 C 423.003906 202.382812 422.382812 202.699219 421.730469 202.960938 C 421.078125 203.222656 420.402344 203.421875 419.707031 203.5625 C 419.011719 203.699219 418.308594 203.773438 417.597656 203.78125 C 416.886719 203.792969 416.183594 203.738281 415.484375 203.617188 C 414.785156 203.5 414.105469 203.320312 413.445312 203.074219 C 412.785156 202.832031 412.15625 202.53125 411.558594 202.171875 C 410.964844 201.816406 410.410156 201.40625 409.902344 200.949219 C 409.394531 200.488281 408.9375 199.988281 408.535156 199.445312 C 408.132812 198.902344 407.792969 198.328125 407.511719 197.722656 C 407.230469 197.117188 407.015625 196.492188 406.871094 195.847656 C 406.722656 195.203125 406.644531 194.554688 406.632812 193.894531 C 406.625 193.234375 406.6875 192.582031 406.816406 191.933594 C 406.945312 191.285156 407.140625 190.65625 407.40625 190.042969 C 407.667969 189.429688 407.996094 188.847656 408.382812 188.292969 C 408.769531 187.738281 409.210938 187.226562 409.707031 186.753906 C 410.203125 186.28125 410.746094 185.855469 411.332031 185.484375 C 411.917969 185.109375 412.539062 184.792969 413.191406 184.53125 C 413.84375 184.269531 414.519531 184.070312 415.214844 183.929688 C 415.910156 183.792969 416.613281 183.71875 417.324219 183.710938 C 418.035156 183.699219 418.738281 183.753906 419.4375 183.875 C 420.136719 183.992188 420.816406 184.171875 421.476562 184.417969 C 422.136719 184.660156 422.765625 184.960938 423.359375 185.320312 C 423.957031 185.675781 424.507812 186.085938 425.019531 186.542969 C 425.527344 187.003906 425.984375 187.503906 426.386719 188.046875 C 426.789062 188.589844 427.128906 189.164062 427.410156 189.769531 C 427.691406 190.375 427.902344 191 428.050781 191.644531 C 428.199219 192.289062 428.277344 192.9375 428.285156 193.597656 Z M 428.285156 193.597656"/><path fill="#19055B" d="M 417.519531 198.230469 L 417.433594 197.160156 L 417.425781 196.089844 C 418.441406 196.078125 419.300781 195.75 419.910156 195.167969 C 420.375 194.726562 420.609375 194.230469 420.601562 193.703125 C 420.582031 192.433594 419.152344 191.402344 417.414062 191.402344 C 416.824219 191.402344 416.34375 190.921875 416.34375 190.332031 C 416.34375 189.742188 416.824219 189.265625 417.414062 189.265625 C 420.363281 189.265625 422.703125 191.203125 422.738281 193.675781 C 422.753906 195.105469 422.011719 196.117188 421.386719 196.714844 C 420.382812 197.671875 419.011719 198.207031 417.519531 198.230469 Z M 417.519531 198.230469"/><path fill="#19055B" d="M 368.96875 147.960938 L 377.105469 161.925781 C 377.105469 161.925781 358.597656 167.265625 359.804688 194.816406 C 359.804688 194.816406 343.621094 161.5625 368.96875 147.960938 Z M 368.96875 147.960938"/><path fill="#FFF" d="M 367 326.21875 C 367 326.21875 353.761719 352.09375 349.425781 375.003906 C 337.96875 435.503906 315.304688 618.945312 315.304688 618.945312 L 378.800781 626.207031 L 393.03125 409.558594 C 393.03125 409.558594 393.203125 474.308594 399.867188 494.167969 C 412.472656 531.742188 473.75 614.242188 473.75 614.242188 L 522.292969 564.675781 L 446.417969 473.226562 C 446.417969 473.226562 462.933594 390.46875 452.394531 369.390625 C 447.15625 358.914062 428.585938 326.21875 428.585938 326.21875 Z M 367 326.21875"/><path fill="#145DA0" d="M 298.726562 339.667969 L 273.121094 333.589844 L 237.097656 413.863281 L 294.875 427.574219 Z M 298.726562 339.667969"/><path fill="#145DA0" d="M 538.234375 401.5625 L 512.4375 396.363281 L 479.167969 477.816406 L 537.382812 489.550781 Z M 538.234375 401.5625"/><path fill="#7BC9C0" d="M 549.535156 391.132812 L 523.296875 393.167969 L 513.496094 480.613281 L 572.699219 476.015625 Z M 549.535156 391.132812"/><path fill="#7BC9C0" d="M 320.226562 343.507812 L 293.910156 343.539062 L 277.472656 429.980469 L 336.855469 429.914062 Z M 320.226562 343.507812"/><path fill="#19055B" d="M 293.910156 344.605469 C 293.867188 344.605469 293.820312 344.605469 293.777344 344.597656 C 293.191406 344.527344 292.777344 343.992188 292.847656 343.40625 C 293.039062 341.871094 297.589844 305.6875 306.925781 298.40625 C 308.3125 297.324219 309.765625 296.871094 311.253906 297.058594 C 311.839844 297.132812 312.257812 297.664062 312.183594 298.25 C 312.109375 298.835938 311.574219 299.257812 310.992188 299.179688 C 310.078125 299.0625 309.171875 299.363281 308.242188 300.089844 C 299.597656 306.832031 295.015625 343.300781 294.96875 343.667969 C 294.902344 344.210938 294.441406 344.605469 293.910156 344.605469 Z M 293.910156 344.605469"/><path fill="#19055B" d="M 549.535156 392.199219 C 549.039062 392.199219 548.597656 391.855469 548.492188 391.347656 C 547.140625 384.847656 545.851562 379.332031 544.605469 373.996094 C 543.863281 370.804688 543.148438 367.757812 542.484375 364.75 C 542.359375 364.175781 542.722656 363.601562 543.296875 363.476562 C 543.875 363.34375 544.445312 363.710938 544.570312 364.289062 C 545.234375 367.289062 545.945312 370.328125 546.6875 373.507812 C 547.933594 378.855469 549.226562 384.386719 550.582031 390.914062 C 550.703125 391.492188 550.332031 392.058594 549.753906 392.179688 C 549.679688 392.191406 549.609375 392.199219 549.535156 392.199219 Z M 549.535156 392.199219"/><path fill="#19055B" d="M 539.480469 392.976562 C 539.441406 392.976562 539.398438 392.972656 539.359375 392.96875 C 538.773438 392.902344 538.351562 392.371094 538.417969 391.785156 C 539.066406 386.117188 539.878906 377.808594 540.042969 373.039062 C 540.066406 372.449219 540.570312 371.984375 541.148438 372.007812 C 541.738281 372.03125 542.199219 372.523438 542.179688 373.113281 C 542.011719 377.945312 541.191406 386.320312 540.539062 392.027344 C 540.480469 392.574219 540.015625 392.976562 539.480469 392.976562 Z M 539.480469 392.976562"/><path fill="#19055B" d="M 278.660156 424.796875 C 278.578125 424.796875 278.496094 424.785156 278.414062 424.765625 L 236.851562 414.902344 C 236.542969 414.828125 236.28125 414.621094 236.140625 414.332031 C 236 414.046875 235.992188 413.714844 236.121094 413.421875 L 272.144531 333.152344 C 272.355469 332.683594 272.867188 332.433594 273.367188 332.546875 L 298.972656 338.625 C 299.472656 338.746094 299.816406 339.199219 299.792969 339.714844 L 299.625 343.578125 C 299.597656 344.152344 299.128906 344.601562 298.558594 344.601562 L 294.792969 344.605469 L 279.710938 423.925781 C 279.65625 424.214844 279.488281 424.464844 279.242188 424.625 C 279.070312 424.738281 278.867188 424.796875 278.660156 424.796875 Z M 238.601562 413.121094 L 277.820312 422.429688 L 292.859375 343.339844 C 292.953125 342.835938 293.394531 342.46875 293.90625 342.46875 L 297.535156 342.464844 L 297.621094 340.503906 L 273.730469 334.832031 Z M 298.558594 343.53125 L 298.566406 343.53125 Z M 298.558594 343.53125"/><path fill="#19055B" d="M 277.472656 431.050781 C 277.15625 431.050781 276.855469 430.90625 276.652344 430.664062 C 276.449219 430.417969 276.363281 430.09375 276.425781 429.78125 L 292.859375 343.339844 C 292.953125 342.835938 293.394531 342.46875 293.90625 342.46875 L 320.222656 342.441406 L 320.226562 342.441406 C 320.738281 342.441406 321.179688 342.804688 321.273438 343.304688 L 337.90625 429.710938 C 337.964844 430.023438 337.882812 430.347656 337.679688 430.59375 C 337.476562 430.839844 337.175781 430.984375 336.855469 430.984375 L 277.476562 431.050781 Z M 294.792969 344.605469 L 278.765625 428.910156 L 335.5625 428.847656 L 319.34375 344.578125 Z M 294.792969 344.605469"/><path fill="#19055B" d="M 273.121094 334.660156 C 272.984375 334.660156 272.851562 334.632812 272.722656 334.582031 C 272.171875 334.359375 271.90625 333.738281 272.128906 333.191406 C 272.734375 331.679688 287.097656 296.183594 297.074219 292.621094 C 298.453125 292.128906 299.738281 292.199219 300.886719 292.832031 C 301.402344 293.117188 301.59375 293.765625 301.308594 294.28125 C 301.023438 294.800781 300.375 294.988281 299.855469 294.703125 C 299.257812 294.375 298.582031 294.351562 297.792969 294.632812 C 290.257812 297.324219 278.140625 323.953125 274.109375 333.988281 C 273.941406 334.40625 273.542969 334.660156 273.121094 334.660156 Z M 273.121094 334.660156"/><path fill="#19055B" d="M 280.070312 417.382812 C 279.847656 417.382812 279.617188 417.3125 279.425781 417.164062 L 268.753906 409.046875 L 237.292969 414.910156 C 236.710938 415.019531 236.15625 414.636719 236.046875 414.058594 C 235.9375 413.476562 236.320312 412.917969 236.902344 412.8125 L 268.828125 406.859375 C 269.128906 406.800781 269.429688 406.875 269.671875 407.058594 L 280.71875 415.460938 C 281.1875 415.820312 281.277344 416.492188 280.921875 416.960938 C 280.710938 417.238281 280.394531 417.382812 280.070312 417.382812 Z M 280.070312 417.382812"/><path fill="#19055B" d="M 269.023438 408.976562 C 268.945312 408.976562 268.859375 408.96875 268.777344 408.949219 C 268.203125 408.8125 267.847656 408.234375 267.984375 407.660156 L 284.882812 336.382812 C 285.019531 335.808594 285.597656 335.453125 286.167969 335.585938 C 286.742188 335.722656 287.097656 336.300781 286.960938 336.875 L 270.0625 408.15625 C 269.945312 408.644531 269.507812 408.976562 269.023438 408.976562 Z M 269.023438 408.976562"/><path fill="#19055B" d="M 277.476562 431.050781 C 277.066406 431.050781 276.675781 430.8125 276.496094 430.414062 C 276.257812 429.875 276.5 429.242188 277.039062 429.003906 L 306.714844 415.804688 C 306.988281 415.683594 307.304688 415.679688 307.582031 415.804688 L 337.285156 428.9375 C 337.828125 429.175781 338.070312 429.804688 337.832031 430.347656 C 337.59375 430.886719 336.964844 431.128906 336.421875 430.890625 L 307.152344 417.949219 L 277.90625 430.957031 C 277.765625 431.019531 277.621094 431.050781 277.476562 431.050781 Z M 277.476562 431.050781"/><path fill="#19055B" d="M 307.148438 417.851562 C 306.558594 417.851562 306.082031 417.371094 306.082031 416.78125 L 306 343.523438 C 306 342.933594 306.476562 342.457031 307.066406 342.453125 C 307.65625 342.453125 308.132812 342.933594 308.136719 343.523438 L 308.21875 416.78125 C 308.21875 417.371094 307.742188 417.851562 307.152344 417.851562 Z M 307.148438 417.851562"/><path fill="#19055B" d="M 537.382812 490.621094 C 537.3125 490.621094 537.242188 490.613281 537.171875 490.597656 L 478.957031 478.863281 C 478.644531 478.800781 478.378906 478.601562 478.226562 478.320312 C 478.078125 478.039062 478.058594 477.707031 478.179688 477.410156 L 511.445312 395.957031 C 511.640625 395.484375 512.144531 395.214844 512.648438 395.3125 L 522.917969 397.382812 C 523.460938 397.492188 523.832031 398 523.769531 398.550781 L 514.699219 479.449219 L 537.40625 477.753906 C 537.707031 477.734375 538 477.835938 538.214844 478.039062 C 538.433594 478.246094 538.558594 478.53125 538.554688 478.832031 L 538.449219 489.5625 C 538.449219 489.878906 538.300781 490.179688 538.054688 490.382812 C 537.863281 490.539062 537.625 490.621094 537.382812 490.621094 Z M 480.648438 477.023438 L 536.328125 488.25 L 536.40625 479.972656 L 513.574219 481.675781 C 513.261719 481.699219 512.945312 481.582031 512.726562 481.351562 C 512.503906 481.125 512.398438 480.808594 512.433594 480.492188 L 521.539062 399.285156 L 513.089844 397.582031 Z M 480.648438 477.023438"/><path fill="#19055B" d="M 537.382812 490.621094 C 537.167969 490.621094 536.953125 490.558594 536.765625 490.425781 L 523.070312 480.722656 C 522.585938 480.382812 522.472656 479.714844 522.8125 479.234375 C 523.15625 478.75 523.820312 478.636719 524.304688 478.976562 L 538 488.679688 C 538.480469 489.019531 538.59375 489.6875 538.253906 490.167969 C 538.046875 490.464844 537.714844 490.621094 537.382812 490.621094 Z M 537.382812 490.621094"/><path fill="#19055B" d="M 479.167969 478.886719 C 478.679688 478.886719 478.238281 478.546875 478.125 478.046875 C 478 477.472656 478.363281 476.902344 478.9375 476.773438 L 510.644531 469.734375 C 510.9375 469.667969 511.246094 469.730469 511.492188 469.90625 L 514.941406 472.347656 C 515.421875 472.6875 515.535156 473.355469 515.195312 473.835938 C 514.851562 474.316406 514.191406 474.433594 513.707031 474.09375 L 510.644531 471.921875 L 479.402344 478.859375 C 479.324219 478.878906 479.246094 478.886719 479.167969 478.886719 Z M 479.167969 478.886719"/><path fill="#19055B" d="M 510.875 471.847656 C 510.804688 471.847656 510.734375 471.839844 510.664062 471.824219 C 510.085938 471.707031 509.710938 471.144531 509.828125 470.566406 L 518.226562 428.851562 C 518.34375 428.273438 518.910156 427.902344 519.484375 428.015625 C 520.0625 428.132812 520.4375 428.695312 520.320312 429.277344 L 511.921875 470.988281 C 511.820312 471.496094 511.375 471.847656 510.875 471.847656 Z M 510.875 471.847656"/><path fill="#19055B" d="M 513.496094 481.679688 C 513.117188 481.679688 512.75 481.476562 512.554688 481.117188 C 512.273438 480.601562 512.46875 479.949219 512.988281 479.671875 L 541.574219 464.246094 C 541.839844 464.105469 542.152344 464.082031 542.4375 464.179688 L 573.054688 475.007812 C 573.609375 475.207031 573.902344 475.816406 573.707031 476.375 C 573.507812 476.929688 572.902344 477.222656 572.34375 477.023438 L 542.171875 466.351562 L 514.003906 481.554688 C 513.839844 481.640625 513.667969 481.679688 513.496094 481.679688 Z M 513.496094 481.679688"/><path fill="#19055B" d="M 542.078125 466.257812 C 541.527344 466.257812 541.058594 465.832031 541.015625 465.269531 L 535.351562 392.230469 C 535.304688 391.644531 535.746094 391.128906 536.335938 391.082031 C 536.945312 391.042969 537.4375 391.476562 537.484375 392.066406 L 543.144531 465.105469 C 543.191406 465.695312 542.75 466.207031 542.164062 466.253906 C 542.132812 466.253906 542.105469 466.257812 542.078125 466.257812 Z M 542.078125 466.257812"/><path fill="#19055B" d="M 513.496094 481.679688 C 513.207031 481.679688 512.929688 481.5625 512.726562 481.355469 C 512.503906 481.125 512.398438 480.808594 512.433594 480.492188 L 522.238281 393.046875 C 522.292969 392.539062 522.707031 392.140625 523.214844 392.101562 L 549.453125 390.066406 C 549.960938 390.027344 550.433594 390.355469 550.566406 390.851562 L 573.730469 475.734375 C 573.8125 476.042969 573.753906 476.371094 573.570312 476.632812 C 573.390625 476.894531 573.101562 477.058594 572.78125 477.082031 L 513.578125 481.675781 C 513.550781 481.679688 513.523438 481.679688 513.496094 481.679688 Z M 524.261719 394.164062 L 514.699219 479.445312 L 571.328125 475.050781 L 548.738281 392.265625 Z M 524.261719 394.164062"/><path fill="#19055B" d="M 393.03125 409.558594 L 372.816406 393.167969 L 393.078125 414.472656 L 393.03125 409.558594"/><path fill="#19055B" d="M 393.078125 415.539062 C 392.789062 415.539062 392.507812 415.425781 392.300781 415.207031 L 372.042969 393.902344 C 371.65625 393.496094 371.648438 392.855469 372.03125 392.441406 C 372.414062 392.027344 373.054688 391.984375 373.492188 392.335938 L 393.707031 408.726562 C 393.953125 408.929688 394.097656 409.226562 394.101562 409.546875 L 394.144531 414.460938 C 394.148438 414.902344 393.882812 415.296875 393.476562 415.460938 C 393.347656 415.515625 393.210938 415.539062 393.078125 415.539062 Z M 384.972656 404.394531 L 391.984375 411.773438 L 391.96875 410.070312 Z M 384.972656 404.394531"/><path fill="#7BC9C0" d="M 354.597656 320.8125 C 354.597656 320.8125 350.519531 297.128906 355.550781 281.789062 C 362.140625 261.703125 372.042969 243.8125 372.042969 243.8125 L 382.816406 238.628906 L 417.460938 237.773438 C 417.460938 237.773438 429.316406 243.78125 432.855469 250.078125 C 446.308594 273.988281 441.292969 320.8125 441.292969 320.8125 Z M 354.597656 320.8125"/><path fill="#FFF" d="M 382.816406 238.628906 C 382.816406 238.628906 379.261719 248.792969 393.355469 238.367188 Z M 382.816406 238.628906"/><path fill="#FFF" d="M 393.355469 238.367188 C 393.355469 238.367188 396.550781 249.257812 417.460938 237.773438 Z M 393.355469 238.367188"/><path fill="#F28A8D" d="M 515.914062 367.09375 C 514.902344 367.09375 513.875 366.964844 512.851562 366.703125 C 477.882812 357.71875 461.953125 349.558594 449.71875 334.367188 C 431.84375 312.160156 412.808594 264.886719 412.007812 262.882812 C 409.484375 256.582031 412.546875 249.429688 418.839844 246.902344 C 425.144531 244.378906 432.289062 247.4375 434.816406 253.738281 C 434.996094 254.195312 453.28125 299.601562 468.855469 318.941406 C 476.308594 328.203125 486.105469 334.449219 518.960938 342.890625 C 525.53125 344.578125 529.492188 351.277344 527.804688 357.855469 C 526.378906 363.402344 521.386719 367.09375 515.914062 367.09375 Z M 515.914062 367.09375"/><path fill="#F28A8D" d="M 519.730469 342.753906 C 522.503906 343.378906 528.476562 345.445312 534.605469 349.265625 C 538.355469 351.601562 547.367188 358.761719 543.53125 364.519531 C 543.53125 364.519531 545.394531 371.796875 539.816406 372.539062 C 539.816406 372.539062 540.441406 382.535156 534.417969 380.519531 C 534.417969 380.519531 528.441406 387.125 526.050781 376.425781 C 525.511719 374.007812 522.785156 371.089844 518.429688 370.101562 C 518.429688 370.101562 517.566406 372.117188 523.261719 375.867188 C 524.640625 376.773438 528.464844 380.660156 525.679688 382.007812 C 522.035156 383.769531 513.496094 380.820312 509.132812 374.75 C 504.214844 367.910156 483.789062 334.636719 519.730469 342.753906 Z M 519.730469 342.753906"/><path fill="#19055B" d="M 428.285156 193.597656 C 428.285156 193.597656 453 236.386719 423.410156 243.621094 C 397.019531 250.078125 407.226562 276.15625 411.960938 306.554688 L 390.441406 305.820312 C 390.441406 305.820312 373.234375 265.101562 405.703125 237.773438 C 414.671875 230.226562 409.007812 218.5625 409.007812 218.5625 C 409.007812 218.5625 414.390625 213.703125 417.023438 203.453125 C 417.023438 203.453125 426.230469 204.632812 428.285156 193.597656 Z M 428.285156 193.597656"/><path fill="#19055B" d="M 437.957031 379.726562 C 437.953125 379.726562 437.945312 379.726562 437.9375 379.726562 C 415.667969 379.296875 410.921875 360.378906 410.875 360.1875 C 410.738281 359.613281 411.09375 359.039062 411.667969 358.902344 C 412.242188 358.761719 412.816406 359.117188 412.953125 359.691406 C 413.128906 360.40625 417.398438 377.195312 437.976562 377.589844 C 438.566406 377.601562 439.039062 378.089844 439.027344 378.679688 C 439.015625 379.261719 438.539062 379.726562 437.957031 379.726562 Z M 437.957031 379.726562"/><path fill="#7BC9C0" d="M 513.316406 574.910156 C 513.011719 574.910156 512.707031 574.777344 512.496094 574.523438 L 429.015625 473.910156 C 428.808594 473.664062 428.726562 473.335938 428.789062 473.019531 C 428.953125 472.195312 445.113281 390.378906 434.859375 369.867188 C 429.695312 359.535156 411.265625 327.070312 411.078125 326.746094 C 410.785156 326.230469 410.964844 325.578125 411.480469 325.289062 C 411.996094 324.996094 412.644531 325.175781 412.933594 325.6875 C 413.121094 326.015625 431.582031 358.53125 436.769531 368.910156 C 447.039062 389.445312 432.476562 465.351562 430.984375 472.9375 L 514.140625 573.15625 C 514.515625 573.609375 514.453125 574.285156 514 574.664062 C 513.800781 574.828125 513.558594 574.910156 513.316406 574.910156 Z M 513.316406 574.910156"/><path fill="#7BC9C0" d="M 462.660156 599.988281 C 462.375 599.988281 462.085938 599.871094 461.878906 599.644531 C 461.476562 599.210938 461.503906 598.535156 461.9375 598.132812 L 511.710938 552.011719 C 512.140625 551.609375 512.820312 551.636719 513.21875 552.070312 C 513.621094 552.503906 513.59375 553.179688 513.164062 553.582031 L 463.386719 599.703125 C 463.183594 599.894531 462.921875 599.988281 462.660156 599.988281 Z M 462.660156 599.988281"/><path fill="#7BC9C0" d="M 379.921875 610.195312 C 379.878906 610.195312 379.835938 610.191406 379.792969 610.1875 L 317.359375 602.546875 C 316.773438 602.472656 316.355469 601.941406 316.429688 601.355469 C 316.5 600.769531 317.035156 600.351562 317.617188 600.421875 L 380.050781 608.0625 C 380.636719 608.136719 381.054688 608.667969 380.980469 609.253906 C 380.914062 609.796875 380.453125 610.195312 379.921875 610.195312 Z M 379.921875 610.195312"/><path fill="#19055B" d="M 378.800781 627.277344 C 378.757812 627.277344 378.71875 627.277344 378.679688 627.269531 L 315.183594 620.007812 C 314.902344 619.972656 314.640625 619.828125 314.464844 619.605469 C 314.289062 619.382812 314.210938 619.097656 314.246094 618.8125 C 314.472656 616.976562 337.042969 434.648438 348.375 374.804688 C 352.691406 352.007812 365.917969 325.988281 366.050781 325.730469 C 366.234375 325.375 366.601562 325.148438 367 325.148438 L 428.585938 325.148438 C 428.96875 325.148438 429.324219 325.355469 429.515625 325.6875 C 429.699219 326.015625 448.160156 358.53125 453.351562 368.910156 C 463.617188 389.445312 449.054688 465.351562 447.5625 472.9375 L 523.113281 563.992188 C 523.460938 564.414062 523.4375 565.03125 523.054688 565.421875 L 474.511719 614.992188 C 474.292969 615.214844 473.992188 615.332031 473.675781 615.308594 C 473.363281 615.289062 473.078125 615.132812 472.890625 614.882812 C 472.277344 614.054688 411.371094 531.8125 398.851562 494.507812 C 394.839844 482.550781 393.164062 455.011719 392.464844 434.492188 L 379.867188 626.277344 C 379.847656 626.570312 379.707031 626.84375 379.484375 627.027344 C 379.292969 627.191406 379.050781 627.277344 378.800781 627.277344 Z M 316.496094 618.003906 L 377.808594 625.019531 L 391.964844 409.488281 C 392.003906 408.914062 392.503906 408.460938 393.066406 408.488281 C 393.640625 408.507812 394.101562 408.976562 394.101562 409.554688 C 394.101562 410.199219 394.347656 474.359375 400.878906 493.828125 C 412.539062 528.578125 466.847656 603.058594 473.863281 612.597656 L 520.855469 564.617188 L 445.59375 473.910156 C 445.390625 473.664062 445.304688 473.335938 445.371094 473.019531 C 445.535156 472.195312 461.695312 390.378906 451.441406 369.867188 C 446.644531 360.273438 430.40625 331.589844 427.964844 327.285156 L 367.660156 327.285156 C 365.695312 331.242188 354.375 354.59375 350.472656 375.199219 C 339.609375 432.582031 318.382812 602.820312 316.496094 618.003906 Z M 316.496094 618.003906"/><path fill="#19055B" d="M 440.0625 321.882812 L 354.597656 321.882812 C 354.078125 321.882812 353.632812 321.507812 353.542969 320.996094 C 353.375 320.015625 349.480469 296.871094 354.535156 281.457031 C 361.082031 261.503906 371.007812 243.472656 371.109375 243.292969 C 371.214844 243.097656 371.382812 242.945312 371.582031 242.847656 L 382.355469 237.667969 C 382.492188 237.601562 382.640625 237.566406 382.792969 237.5625 L 405.332031 237.003906 C 405.765625 236.972656 406.195312 237.269531 406.355469 237.691406 C 406.515625 238.113281 406.394531 238.59375 406.050781 238.886719 C 377.160156 263.5625 389.238281 299.589844 391.183594 304.777344 L 410.703125 305.441406 C 409.992188 301.023438 409.175781 296.703125 408.382812 292.511719 C 403.894531 268.757812 400.019531 248.242188 423.160156 242.582031 C 423.914062 242.398438 424.65625 242.179688 425.421875 241.917969 C 425.753906 241.804688 426.121094 241.859375 426.402344 242.066406 C 429.988281 244.699219 432.472656 247.214844 433.789062 249.550781 C 434.121094 250.015625 434.003906 250.621094 433.554688 250.976562 C 433.109375 251.328125 432.4375 251.230469 432.0625 250.800781 C 428.863281 247.109375 423.671875 245.851562 419.148438 247.664062 C 416.304688 248.804688 414.074219 250.984375 412.871094 253.800781 C 411.667969 256.617188 411.632812 259.734375 412.769531 262.578125 C 413.320312 263.949219 426.375 296.4375 440.972656 320.253906 C 441.171875 320.582031 441.183594 320.996094 440.992188 321.335938 C 440.804688 321.671875 440.449219 321.882812 440.0625 321.882812 Z M 355.507812 319.742188 L 438.164062 319.742188 C 423.878906 295.953125 411.324219 264.71875 410.785156 263.375 C 409.433594 260 409.476562 256.300781 410.90625 252.960938 C 411.167969 252.347656 411.472656 251.761719 411.8125 251.203125 C 404.371094 259.78125 407.167969 274.582031 410.484375 292.113281 C 411.355469 296.726562 412.253906 301.492188 413.015625 306.390625 C 413.066406 306.703125 412.972656 307.027344 412.761719 307.261719 C 412.550781 307.503906 412.226562 307.628906 411.925781 307.621094 L 390.40625 306.886719 C 389.988281 306.875 389.621094 306.621094 389.457031 306.234375 C 389.289062 305.835938 373.226562 266.675781 402.484375 239.214844 L 383.074219 239.691406 L 372.816406 244.625 C 371.507812 247.039062 362.589844 263.765625 356.566406 282.121094 C 352.214844 295.382812 354.84375 315.320312 355.507812 319.742188 Z M 423.476562 244.707031 C 424.648438 244.714844 425.8125 244.871094 426.9375 245.175781 C 426.507812 244.828125 426.054688 244.472656 425.582031 244.117188 C 424.9375 244.324219 424.308594 244.503906 423.664062 244.660156 C 423.601562 244.675781 423.539062 244.691406 423.476562 244.707031 Z M 423.476562 244.707031"/><path fill="#19055B" d="M 428.585938 327.285156 L 367 327.285156 C 366.617188 327.285156 366.261719 327.078125 366.070312 326.742188 C 366.023438 326.65625 364.859375 324.597656 363.242188 321.28125 C 363.078125 320.949219 363.097656 320.558594 363.292969 320.246094 C 363.488281 319.933594 363.832031 319.742188 364.199219 319.742188 L 430.257812 319.742188 C 430.59375 319.742188 430.910156 319.902344 431.113281 320.171875 C 431.3125 320.441406 431.375 320.789062 431.28125 321.113281 C 430.296875 324.492188 429.625 326.476562 429.597656 326.558594 C 429.449219 326.992188 429.042969 327.285156 428.585938 327.285156 Z M 367.628906 325.148438 L 427.8125 325.148438 C 428.03125 324.476562 428.386719 323.359375 428.828125 321.882812 L 365.925781 321.882812 C 366.683594 323.390625 367.292969 324.527344 367.628906 325.148438 Z M 367.628906 325.148438"/><path fill="#19055B" d="M 530.550781 383.601562 C 530.222656 383.601562 529.882812 383.5625 529.542969 383.472656 C 528.703125 383.253906 527.960938 382.761719 527.308594 382.003906 C 527.039062 382.398438 526.644531 382.726562 526.144531 382.96875 C 521.996094 384.972656 512.929688 381.867188 508.265625 375.375 C 506.660156 373.144531 504.246094 369.328125 502.1875 365.183594 C 474.417969 357.257812 459.894531 349.105469 448.695312 335.191406 C 430.65625 312.785156 411.589844 265.378906 410.785156 263.375 C 409.433594 260 409.476562 256.300781 410.90625 252.960938 C 412.335938 249.617188 414.980469 247.035156 418.351562 245.679688 C 421.722656 244.328125 425.417969 244.371094 428.761719 245.800781 C 432.101562 247.230469 434.683594 249.875 436.035156 253.25 C 436.78125 255.117188 454.5 299.164062 469.875 318.113281 C 479.539062 330.023438 500.363281 336.605469 517.097656 341.894531 C 524.398438 344.203125 530.703125 346.195312 535.070312 348.300781 C 538.398438 349.910156 543.941406 354.527344 545.253906 359.339844 C 545.792969 361.300781 545.59375 363.109375 544.664062 364.714844 C 544.890625 365.902344 545.308594 369.101562 543.792969 371.355469 C 543.105469 372.375 542.132812 373.0625 540.894531 373.410156 C 540.871094 375.28125 540.542969 379.328125 538.265625 381.054688 C 537.5625 381.585938 536.402344 382.089844 534.722656 381.714844 C 533.953125 382.40625 532.359375 383.601562 530.550781 383.601562 Z M 518.429688 369.03125 C 518.507812 369.03125 518.585938 369.039062 518.664062 369.058594 C 523.613281 370.183594 526.503906 373.542969 527.09375 376.191406 C 527.769531 379.21875 528.832031 381.070312 530.082031 381.40625 C 531.449219 381.765625 533.105469 380.371094 533.628906 379.800781 C 533.914062 379.488281 534.359375 379.371094 534.757812 379.503906 C 535.695312 379.820312 536.417969 379.769531 536.976562 379.347656 C 538.621094 378.105469 538.8125 373.949219 538.746094 372.589844 C 538.722656 372.039062 539.125 371.554688 539.675781 371.480469 C 540.746094 371.339844 541.511719 370.90625 542.019531 370.164062 C 543.339844 368.210938 542.503906 364.816406 542.496094 364.785156 C 542.421875 364.492188 542.472656 364.179688 542.640625 363.925781 C 543.429688 362.742188 543.609375 361.425781 543.195312 359.902344 C 542.117188 355.96875 537.15625 351.683594 534.140625 350.226562 C 529.914062 348.1875 523.675781 346.214844 516.453125 343.933594 C 499.445312 338.558594 478.28125 331.867188 468.21875 319.460938 C 452.640625 300.261719 434.804688 255.921875 434.054688 254.042969 C 432.914062 251.199219 430.738281 248.972656 427.917969 247.765625 C 425.101562 246.558594 421.988281 246.527344 419.148438 247.664062 C 416.304688 248.804688 414.074219 250.984375 412.871094 253.800781 C 411.667969 256.617188 411.632812 259.734375 412.769531 262.578125 C 413.566406 264.574219 432.515625 311.691406 450.359375 333.851562 C 461.449219 347.628906 475.285156 355.324219 503.226562 363.257812 C 503.519531 363.339844 503.761719 363.542969 503.894531 363.816406 C 506.535156 369.226562 509.441406 373.355469 510 374.128906 C 514.203125 379.976562 522.21875 382.496094 525.214844 381.046875 C 525.585938 380.867188 525.597656 380.707031 525.601562 380.613281 C 525.671875 379.546875 523.71875 377.449219 522.675781 376.761719 C 516.699219 372.824219 517.160156 370.347656 517.445312 369.679688 C 517.617188 369.28125 518.007812 369.03125 518.429688 369.03125 Z M 520.085938 371.746094 C 520.660156 372.511719 521.757812 373.597656 523.851562 374.976562 C 524.046875 375.105469 524.296875 375.292969 524.582031 375.535156 C 523.832031 374.117188 522.273438 372.65625 520.085938 371.746094 Z M 519.453125 370.398438 Z M 519.453125 370.398438"/><path fill="#19055B" d="M 534.417969 381.589844 C 534.328125 381.589844 534.234375 381.578125 534.144531 381.550781 C 533.574219 381.398438 533.234375 380.816406 533.386719 380.246094 C 533.480469 379.882812 535.582031 371.296875 526.382812 364.367188 C 525.914062 364.011719 525.820312 363.34375 526.171875 362.871094 C 526.527344 362.398438 527.195312 362.304688 527.667969 362.660156 C 538.054688 370.480469 535.5625 380.375 535.449219 380.792969 C 535.324219 381.273438 534.890625 381.589844 534.417969 381.589844 Z M 534.417969 381.589844"/><path fill="#19055B" d="M 539.816406 373.609375 C 539.226562 373.609375 538.746094 373.132812 538.746094 372.539062 C 538.746094 368.609375 537.769531 363.988281 530.523438 359.507812 C 530.019531 359.199219 529.863281 358.539062 530.175781 358.039062 C 530.484375 357.535156 531.144531 357.378906 531.644531 357.691406 C 539.832031 362.75 540.882812 368.285156 540.882812 372.539062 C 540.882812 373.132812 540.40625 373.609375 539.816406 373.609375 Z M 539.816406 373.609375"/><path fill="#19055B" d="M 543.527344 365.589844 C 543.058594 365.589844 542.625 365.273438 542.5 364.796875 C 542.476562 364.714844 541.039062 359.640625 535.542969 356.269531 C 535.039062 355.960938 534.882812 355.304688 535.191406 354.800781 C 535.5 354.296875 536.15625 354.140625 536.660156 354.449219 C 542.929688 358.296875 544.5 364.003906 544.5625 364.246094 C 544.714844 364.816406 544.371094 365.402344 543.804688 365.554688 C 543.710938 365.578125 543.621094 365.589844 543.527344 365.589844 Z M 543.527344 365.589844"/><path fill="#19055B" d="M 382.820312 239.699219 C 382.539062 239.699219 382.273438 239.589844 382.074219 239.394531 C 381.867188 239.195312 381.75 238.917969 381.75 238.628906 L 381.75 226.34375 C 381.75 226.023438 381.894531 225.71875 382.144531 225.515625 C 382.394531 225.3125 382.722656 225.234375 383.035156 225.300781 C 383.167969 225.324219 383.304688 225.347656 383.4375 225.371094 L 383.921875 225.460938 C 384.078125 225.488281 384.234375 225.519531 384.394531 225.542969 C 385.035156 225.644531 385.679688 225.71875 386.332031 225.773438 C 386.515625 225.789062 386.707031 225.800781 386.894531 225.8125 C 387.726562 225.867188 388.40625 225.890625 389.066406 225.878906 C 389.808594 225.867188 390.570312 225.824219 391.398438 225.746094 C 391.40625 225.742188 391.507812 225.734375 391.515625 225.734375 C 392.292969 225.65625 393 225.550781 393.765625 225.410156 L 394.054688 225.355469 C 394.714844 225.226562 395.40625 225.0625 396.105469 224.871094 L 396.425781 224.78125 C 397.085938 224.589844 397.746094 224.371094 398.386719 224.132812 L 398.671875 224.023438 C 399.355469 223.757812 399.996094 223.484375 400.59375 223.199219 L 400.847656 223.070312 C 401.523438 222.742188 402.132812 222.417969 402.707031 222.082031 L 402.867188 221.980469 C 404.136719 221.226562 405.355469 220.359375 406.488281 219.410156 C 407.09375 218.902344 407.613281 218.425781 408.160156 217.890625 C 408.164062 217.886719 408.234375 217.816406 408.238281 217.8125 L 408.316406 217.738281 C 408.726562 217.324219 409.125 216.886719 409.515625 216.441406 C 409.902344 216 410.570312 215.957031 411.011719 216.335938 C 411.457031 216.714844 411.511719 217.382812 411.136719 217.832031 C 410.796875 218.238281 410.503906 218.5625 410.273438 218.808594 C 411.359375 221.566406 414.570312 231.707031 406.390625 238.59375 L 406.050781 238.886719 C 405.867188 239.042969 405.628906 239.132812 405.386719 239.140625 L 382.84375 239.699219 C 382.835938 239.699219 382.828125 239.699219 382.820312 239.699219 Z M 405.359375 238.070312 L 405.371094 238.070312 Z M 383.886719 227.625 L 383.886719 237.535156 L 404.949219 237.011719 L 405.015625 236.953125 C 411.578125 231.429688 409.722656 223.566406 408.605469 220.40625 C 408.382812 220.605469 408.167969 220.796875 407.949219 220.980469 C 407.949219 220.980469 407.863281 221.050781 407.859375 221.050781 C 406.640625 222.070312 405.328125 223.003906 403.957031 223.820312 L 403.789062 223.925781 C 403.167969 224.289062 402.511719 224.640625 401.785156 224.996094 L 401.507812 225.128906 C 400.867188 225.433594 400.175781 225.730469 399.464844 226.007812 L 399.132812 226.132812 C 398.445312 226.390625 397.730469 226.628906 397.019531 226.835938 L 396.675781 226.929688 C 395.921875 227.136719 395.179688 227.316406 394.464844 227.453125 L 394.152344 227.511719 C 393.335938 227.664062 392.570312 227.773438 391.820312 227.855469 L 391.679688 227.867188 C 390.71875 227.957031 389.898438 228.003906 389.09375 228.015625 C 388.382812 228.023438 387.644531 228.003906 386.765625 227.945312 C 386.554688 227.933594 386.351562 227.917969 386.152344 227.902344 C 385.40625 227.839844 384.722656 227.757812 384.0625 227.65625 C 384.007812 227.644531 383.945312 227.636719 383.886719 227.625 Z M 383.886719 227.625"/><path fill="#19055B" d="M 388.6875 228.019531 C 375.011719 228.019531 362.9375 218.558594 359.660156 205.304688 C 355.351562 203.570312 352.5625 199.695312 352.503906 195.277344 C 352.460938 192.089844 353.894531 189.03125 356.441406 186.886719 C 356.71875 186.65625 357.089844 186.578125 357.433594 186.679688 C 357.777344 186.78125 358.046875 187.050781 358.152344 187.394531 C 358.355469 188.066406 358.5625 188.699219 358.765625 189.292969 C 359.761719 171.8125 369.328125 164.644531 373.703125 162.261719 C 374.117188 162.039062 374.625 162.109375 374.960938 162.441406 C 381.332031 168.71875 392.851562 173.070312 409.199219 175.371094 C 409.480469 175.410156 409.734375 175.5625 409.902344 175.789062 C 410.074219 176.015625 410.144531 176.304688 410.105469 176.585938 C 410.097656 176.632812 409.511719 180.800781 410.324219 184.871094 C 412.328125 183.457031 414.753906 182.675781 417.308594 182.640625 C 417.78125 182.632812 418.28125 182.660156 418.835938 182.722656 L 419.109375 182.753906 C 419.683594 182.832031 420.125 182.917969 420.535156 183.019531 C 420.535156 183.019531 420.636719 183.042969 420.636719 183.042969 C 421.664062 183.308594 422.652344 183.703125 423.570312 184.214844 C 427.140625 186.210938 429.300781 189.714844 429.355469 193.582031 C 429.4375 199.644531 424.28125 204.65625 417.816406 204.847656 C 414.75 218.140625 402.8125 227.828125 389.09375 228.015625 C 388.960938 228.019531 388.824219 228.019531 388.6875 228.019531 Z M 356.648438 189.699219 C 355.328125 191.285156 354.613281 193.238281 354.636719 195.246094 C 354.6875 198.941406 357.15625 202.179688 360.921875 203.496094 C 361.269531 203.617188 361.53125 203.910156 361.613281 204.269531 C 364.460938 216.847656 375.8125 225.882812 388.6875 225.882812 C 388.8125 225.882812 388.9375 225.878906 389.0625 225.878906 C 402.082031 225.703125 413.371094 216.3125 415.910156 203.550781 C 416.011719 203.035156 416.425781 202.660156 417.003906 202.695312 L 417.179688 202.703125 C 417.3125 202.707031 417.445312 202.71875 417.582031 202.714844 C 422.964844 202.640625 427.285156 198.558594 427.21875 193.613281 C 427.175781 190.515625 425.421875 187.703125 422.527344 186.082031 C 421.769531 185.660156 420.953125 185.332031 420.101562 185.113281 C 419.652344 185 419.28125 184.9375 418.902344 184.882812 L 418.609375 184.847656 C 418.136719 184.796875 417.714844 184.769531 417.339844 184.777344 C 414.710938 184.816406 412.261719 185.792969 410.4375 187.535156 C 410.167969 187.792969 409.789062 187.890625 409.429688 187.796875 C 409.070312 187.703125 408.785156 187.429688 408.679688 187.078125 C 407.535156 183.339844 407.703125 179.238281 407.871094 177.339844 C 392.078125 175.003906 380.707031 170.695312 374.046875 164.523438 C 368.46875 167.804688 360.046875 175.921875 360.871094 194.769531 C 360.894531 195.277344 360.558594 195.726562 360.066406 195.851562 C 359.570312 195.976562 359.0625 195.738281 358.84375 195.28125 C 358.792969 195.179688 357.777344 193.066406 356.648438 189.699219 Z M 356.648438 189.699219"/><path fill="#19055B" d="M 420.273438 185.125 C 420.191406 185.125 420.101562 185.113281 420.015625 185.09375 C 419.796875 185.039062 419.570312 184.992188 419.339844 184.953125 C 419.195312 184.925781 419.050781 184.90625 418.902344 184.882812 C 418.316406 184.804688 417.910156 184.265625 417.988281 183.679688 C 418.066406 183.097656 418.605469 182.6875 419.191406 182.765625 C 419.328125 182.785156 419.464844 182.804688 419.601562 182.828125 C 419.933594 182.882812 420.238281 182.945312 420.53125 183.019531 C 420.53125 183.019531 420.527344 183.019531 420.535156 183.019531 C 421.105469 183.164062 421.453125 183.742188 421.3125 184.3125 C 421.191406 184.800781 420.753906 185.125 420.273438 185.125 Z M 420.273438 185.125"/><path fill="#19055B" d="M 423.046875 186.21875 C 422.871094 186.21875 422.691406 186.175781 422.527344 186.082031 C 421.769531 185.660156 420.953125 185.332031 420.101562 185.113281 C 419.53125 184.964844 419.1875 184.382812 419.335938 183.808594 C 419.484375 183.238281 420.074219 182.894531 420.636719 183.042969 L 420.640625 183.042969 C 421.660156 183.304688 422.644531 183.699219 423.570312 184.214844 C 424.085938 184.503906 424.269531 185.15625 423.980469 185.671875 C 423.785156 186.019531 423.421875 186.21875 423.046875 186.21875 Z M 423.046875 186.21875"/><path fill="#19055B" d="M 418.722656 184.851562 C 418.6875 184.851562 418.648438 184.851562 418.609375 184.847656 C 418.167969 184.800781 417.792969 184.777344 417.445312 184.777344 C 417.4375 184.777344 417.425781 184.777344 417.417969 184.777344 C 417.417969 184.777344 417.414062 184.777344 417.410156 184.777344 C 417.398438 184.777344 417.386719 184.777344 417.371094 184.777344 C 417.355469 184.777344 417.339844 184.777344 417.324219 184.777344 C 416.738281 184.777344 416.261719 184.308594 416.253906 183.722656 C 416.253906 183.71875 416.253906 183.714844 416.253906 183.710938 C 416.253906 183.125 416.722656 182.648438 417.308594 182.640625 C 417.421875 182.640625 417.535156 182.640625 417.648438 182.640625 C 417.648438 182.640625 417.652344 182.640625 417.652344 182.640625 C 418.023438 182.648438 418.414062 182.675781 418.835938 182.722656 C 419.425781 182.785156 419.847656 183.3125 419.785156 183.898438 C 419.726562 184.445312 419.261719 184.851562 418.722656 184.851562 Z M 418.722656 184.851562"/><path fill="#19055B" d="M 336.976562 334.453125 C 328.621094 334.453125 316.285156 331.195312 300.179688 324.726562 C 284.671875 318.496094 256.210938 305.671875 247.875 297.109375 C 242.597656 291.683594 240.515625 287.574219 241.515625 284.546875 C 242.078125 282.835938 243.484375 282.003906 244.472656 281.617188 C 244.097656 279.070312 244.503906 277.085938 245.6875 275.707031 C 246.710938 274.515625 248.070312 274.089844 249.011719 273.941406 C 249.144531 271.925781 249.804688 270.386719 250.988281 269.355469 C 252.167969 268.324219 253.578125 268.085938 254.484375 268.054688 C 255.46875 265.421875 257.019531 264.726562 258.199219 264.628906 C 260.730469 264.414062 263.203125 266.8125 263.875 268.214844 C 265.703125 272.015625 267.289062 274.378906 268.527344 275.851562 C 266.722656 271.40625 266.460938 268.382812 267.714844 266.664062 C 269.066406 264.808594 270.496094 264.566406 271.457031 264.691406 C 274.832031 265.136719 277.683594 270.746094 279.480469 275.371094 C 286.402344 293.210938 323.628906 305.894531 333.230469 307.332031 C 335.871094 302.644531 339.792969 293.140625 342.429688 286.761719 C 352.996094 261.183594 360.136719 245.339844 373.246094 242.070312 C 373.777344 241.9375 374.324219 242.230469 374.507812 242.746094 C 374.695312 243.261719 374.460938 243.835938 373.96875 244.070312 L 372.816406 244.625 C 371.507812 247.039062 362.589844 263.765625 356.566406 282.121094 C 352.214844 295.382812 354.84375 315.320312 355.507812 319.742188 L 355.578125 319.742188 C 355.960938 319.742188 356.316406 319.949219 356.507812 320.28125 C 356.695312 320.613281 356.695312 321.023438 356.5 321.355469 C 352.191406 328.683594 347.808594 332.550781 342.292969 333.890625 C 340.75 334.265625 338.976562 334.453125 336.976562 334.453125 Z M 249.945312 276 C 249.65625 276 248.199219 276.054688 247.296875 277.113281 C 246.445312 278.117188 246.253906 279.859375 246.738281 282.148438 C 246.796875 282.433594 246.738281 282.730469 246.574219 282.972656 C 246.40625 283.214844 246.152344 283.375 245.863281 283.421875 C 245.851562 283.425781 244.015625 283.761719 243.539062 285.230469 C 243.144531 286.453125 243.382812 289.425781 249.40625 295.617188 C 257.492188 303.925781 285.625 316.574219 300.972656 322.742188 C 314.410156 328.136719 332.402344 334.09375 341.789062 331.8125 C 346.367188 330.699219 350.132812 327.523438 353.859375 321.585938 C 353.699219 321.433594 353.582031 321.226562 353.542969 320.996094 C 353.375 320.015625 349.480469 296.871094 354.535156 281.457031 C 359.703125 265.703125 366.980469 251.148438 369.863281 245.628906 C 360.046875 250.761719 353.554688 265.421875 344.402344 287.574219 C 341.460938 294.703125 337.429688 304.46875 334.714844 309.03125 C 334.503906 309.386719 334.105469 309.585938 333.6875 309.546875 C 324.765625 308.605469 285.03125 295.585938 277.488281 276.144531 C 275.375 270.703125 272.898438 267.039062 271.179688 266.8125 C 270.96875 266.785156 270.332031 266.699219 269.4375 267.921875 C 269.0625 268.4375 268.160156 270.742188 272.242188 278.816406 C 272.414062 279.160156 272.390625 279.570312 272.175781 279.890625 C 271.964844 280.210938 271.613281 280.390625 271.210938 280.367188 C 270.542969 280.316406 266.957031 279.550781 261.949219 269.140625 C 261.582031 268.375 259.796875 266.636719 258.378906 266.757812 C 257.25 266.851562 256.609375 268.273438 256.273438 269.445312 C 256.125 269.964844 255.613281 270.285156 255.082031 270.207031 C 255.070312 270.207031 253.492188 269.992188 252.378906 270.980469 C 251.511719 271.742188 251.089844 273.066406 251.125 274.914062 C 251.128906 275.210938 251.011719 275.5 250.796875 275.703125 C 250.582031 275.910156 250.296875 276.027344 249.992188 276 C 249.992188 276 249.976562 276 249.945312 276 Z M 249.945312 276"/><path fill="#19055B" d="M 272.492188 289.761719 C 272.148438 289.761719 271.8125 289.597656 271.605469 289.292969 C 267.636719 283.410156 270.261719 278.933594 270.375 278.746094 C 270.679688 278.242188 271.339844 278.082031 271.839844 278.386719 C 272.34375 278.691406 272.507812 279.34375 272.207031 279.847656 C 272.113281 280.011719 270.214844 283.40625 273.378906 288.09375 C 273.707031 288.585938 273.578125 289.25 273.089844 289.578125 C 272.90625 289.703125 272.699219 289.761719 272.492188 289.761719 Z M 272.492188 289.761719"/><path fill="#19055B" d="M 263.203125 281.894531 C 262.957031 281.894531 262.710938 281.8125 262.511719 281.640625 C 256.582031 276.589844 254.324219 269.765625 254.230469 269.480469 C 254.046875 268.917969 254.355469 268.316406 254.914062 268.132812 C 255.480469 267.953125 256.078125 268.257812 256.261719 268.820312 C 256.28125 268.882812 258.441406 275.367188 263.894531 280.011719 C 264.34375 280.394531 264.398438 281.070312 264.015625 281.519531 C 263.804688 281.769531 263.503906 281.894531 263.203125 281.894531 Z M 263.203125 281.894531"/><path fill="#19055B" d="M 259.222656 286.488281 C 259.003906 286.488281 258.78125 286.421875 258.585938 286.277344 C 251.242188 280.816406 249.144531 275.539062 249.058594 275.320312 C 248.847656 274.769531 249.121094 274.148438 249.671875 273.9375 C 250.21875 273.722656 250.839844 273.996094 251.050781 274.546875 C 251.082031 274.625 253.078125 279.515625 259.863281 284.5625 C 260.335938 284.914062 260.433594 285.585938 260.082031 286.058594 C 259.871094 286.339844 259.550781 286.488281 259.222656 286.488281 Z M 259.222656 286.488281"/><path fill="#19055B" d="M 255.921875 292.273438 C 255.726562 292.273438 255.53125 292.21875 255.355469 292.109375 C 249.417969 288.367188 245.0625 283.277344 244.878906 283.058594 C 244.496094 282.609375 244.550781 281.9375 245 281.554688 C 245.445312 281.171875 246.125 281.226562 246.507812 281.675781 C 246.550781 281.726562 250.839844 286.738281 256.492188 290.300781 C 256.992188 290.613281 257.140625 291.273438 256.828125 291.773438 C 256.625 292.097656 256.277344 292.273438 255.921875 292.273438 Z M 255.921875 292.273438"/><path fill="#19055B" d="M 254.640625 295.996094 C 254.5625 295.996094 254.484375 295.988281 254.402344 295.972656 C 253.828125 295.839844 253.46875 295.265625 253.601562 294.691406 C 255.554688 286.121094 264.148438 278.425781 264.515625 278.105469 C 264.957031 277.714844 265.632812 277.753906 266.023438 278.195312 C 266.414062 278.636719 266.371094 279.3125 265.929688 279.703125 C 265.847656 279.777344 257.484375 287.273438 255.683594 295.167969 C 255.570312 295.660156 255.128906 295.996094 254.640625 295.996094 Z M 254.640625 295.996094"/><path fill="#19055B" d="M 360.5625 205.574219 C 360.074219 205.574219 359.636719 205.238281 359.523438 204.742188 C 359.0625 202.707031 358.816406 200.613281 358.785156 198.511719 L 358.738281 194.832031 C 358.726562 194.238281 359.199219 193.753906 359.789062 193.746094 C 359.796875 193.746094 359.800781 193.746094 359.804688 193.746094 C 360.386719 193.746094 360.863281 194.214844 360.871094 194.800781 L 360.921875 198.480469 C 360.949219 200.433594 361.179688 202.382812 361.605469 204.269531 C 361.738281 204.84375 361.375 205.417969 360.800781 205.546875 C 360.722656 205.566406 360.640625 205.574219 360.5625 205.574219 Z M 360.5625 205.574219"/><path fill="#19055B" d="M 411.960938 307.625 C 411.949219 307.625 411.9375 307.625 411.925781 307.621094 L 390.40625 306.886719 C 389.992188 306.875 389.621094 306.621094 389.457031 306.234375 C 389.285156 305.820312 372.324219 264.476562 405.015625 236.957031 C 413.226562 230.042969 408.261719 219.472656 408.046875 219.027344 C 407.839844 218.601562 407.941406 218.085938 408.292969 217.769531 C 408.34375 217.722656 413.480469 212.964844 415.988281 203.1875 C 416.121094 202.664062 416.621094 202.316406 417.15625 202.390625 C 417.488281 202.433594 425.398438 203.269531 427.238281 193.402344 C 427.320312 192.960938 427.667969 192.621094 428.105469 192.542969 C 428.546875 192.46875 428.988281 192.675781 429.210938 193.0625 C 429.8125 194.101562 443.839844 218.699219 437.300781 234.027344 C 434.992188 239.433594 430.40625 243.011719 423.664062 244.660156 C 402.492188 249.839844 406.019531 268.492188 410.484375 292.113281 C 411.355469 296.726562 412.253906 301.492188 413.015625 306.390625 C 413.066406 306.703125 412.972656 307.023438 412.761719 307.261719 C 412.558594 307.492188 412.265625 307.625 411.960938 307.625 Z M 391.183594 304.777344 L 410.703125 305.441406 C 409.992188 301.023438 409.175781 296.703125 408.382812 292.511719 C 403.894531 268.757812 400.019531 248.242188 423.160156 242.582031 C 429.210938 241.105469 433.308594 237.941406 435.335938 233.1875 C 440.335938 221.46875 431.953125 203.019531 428.628906 196.503906 C 426.125 203.707031 420.160156 204.515625 417.835938 204.546875 C 415.578125 212.660156 411.707031 217.300781 410.273438 218.8125 C 411.359375 221.570312 414.566406 231.707031 406.390625 238.59375 C 377.0625 263.28125 389.230469 299.570312 391.183594 304.777344 Z M 391.183594 304.777344"/><g clip-path="url(#a)"><path fill="#19055B" d="M 317.488281 675.34375 L 270.246094 675.34375 C 269.949219 675.34375 269.667969 675.21875 269.464844 675.003906 C 269.261719 674.789062 269.160156 674.496094 269.179688 674.203125 C 269.210938 673.761719 270.03125 663.355469 280.316406 656.199219 C 282.585938 654.617188 285.441406 653.078125 289.292969 651.355469 C 289.8125 651.117188 290.425781 651.339844 290.683594 651.851562 C 290.695312 651.867188 295.171875 658.800781 316.558594 651.6875 L 348.367188 641.113281 C 348.71875 640.996094 349.101562 641.070312 349.386719 641.304688 C 349.671875 641.539062 349.8125 641.902344 349.765625 642.265625 L 345.515625 674.261719 C 345.445312 674.789062 344.992188 675.1875 344.457031 675.1875 L 330.234375 675.222656 C 329.949219 675.222656 329.679688 675.109375 329.480469 674.910156 C 329.277344 674.707031 329.164062 674.4375 329.164062 674.152344 L 329.164062 667.367188 L 318.101562 675.148438 C 317.921875 675.277344 317.710938 675.34375 317.488281 675.34375 Z M 271.476562 673.207031 L 317.152344 673.207031 L 329.621094 664.433594 C 329.945312 664.207031 330.371094 664.175781 330.726562 664.359375 C 331.078125 664.542969 331.300781 664.910156 331.300781 665.308594 L 331.300781 673.082031 L 343.519531 673.050781 L 347.421875 643.679688 L 317.230469 653.71875 C 298.074219 660.085938 291.332031 655.640625 289.417969 653.640625 C 286.066406 655.175781 283.546875 656.554688 281.535156 657.953125 C 274.03125 663.175781 271.996094 670.429688 271.476562 673.207031 Z M 271.476562 673.207031"/></g><g clip-path="url(#b)"><path fill="#19055B" d="M 317.488281 675.34375 L 270.246094 675.34375 C 269.949219 675.34375 269.667969 675.21875 269.464844 675.003906 C 269.261719 674.789062 269.160156 674.496094 269.179688 674.203125 C 269.210938 673.761719 270.03125 663.355469 280.316406 656.199219 C 284.890625 653.015625 291.28125 650.429688 297.464844 647.929688 C 304.765625 644.976562 312.304688 641.925781 316.550781 637.992188 L 319.457031 619.375 C 319.546875 618.808594 320.078125 618.410156 320.632812 618.476562 L 351.699219 622.03125 C 351.984375 622.066406 352.246094 622.210938 352.421875 622.441406 C 352.597656 622.667969 352.675781 622.957031 352.632812 623.242188 L 345.515625 674.265625 C 345.441406 674.792969 344.988281 675.1875 344.457031 675.1875 L 330.234375 675.222656 C 329.949219 675.222656 329.679688 675.109375 329.480469 674.910156 C 329.277344 674.707031 329.164062 674.4375 329.164062 674.152344 L 329.164062 667.367188 L 318.101562 675.148438 C 317.921875 675.277344 317.710938 675.34375 317.488281 675.34375 Z M 271.476562 673.207031 L 317.152344 673.207031 L 329.621094 664.433594 C 329.945312 664.207031 330.371094 664.175781 330.726562 664.359375 C 331.078125 664.542969 331.300781 664.910156 331.300781 665.308594 L 331.300781 673.082031 L 343.527344 673.050781 L 350.367188 624.03125 L 321.410156 620.71875 L 318.605469 638.683594 C 318.566406 638.914062 318.457031 639.125 318.292969 639.285156 C 313.800781 643.625 305.902344 646.820312 298.265625 649.910156 C 292.191406 652.367188 285.914062 654.910156 281.535156 657.953125 C 274.03125 663.175781 271.996094 670.429688 271.476562 673.207031 Z M 317.546875 638.515625 L 317.558594 638.515625 Z M 317.546875 638.515625"/></g><path fill="#19055B" d="M 345.625 666.378906 L 273.3125 666.378906 C 272.722656 666.378906 272.242188 665.898438 272.242188 665.308594 C 272.242188 664.71875 272.722656 664.238281 273.3125 664.238281 L 345.625 664.238281 C 346.21875 664.238281 346.695312 664.71875 346.695312 665.308594 C 346.695312 665.898438 346.21875 666.378906 345.625 666.378906 Z M 345.625 666.378906"/><path fill="#7BC9C0" d="M 535.472656 578.695312 C 535.472656 578.695312 528.367188 598.457031 524.121094 610.253906 C 516.003906 632.824219 507.050781 631.398438 507.039062 631.394531 C 506.167969 634.878906 505.507812 638.222656 505.332031 641.253906 C 504.617188 653.398438 512.242188 660.28125 512.242188 660.28125 L 541.4375 623.117188 L 542.269531 607.550781 L 549.21875 613.015625 L 557.984375 601.808594 Z M 535.472656 578.695312"/><path fill="#19055B" d="M 512.242188 661.351562 C 511.980469 661.351562 511.726562 661.253906 511.527344 661.074219 C 511.199219 660.78125 503.527344 653.703125 504.265625 641.1875 C 504.425781 638.425781 504.980469 635.230469 506.003906 631.136719 C 506.136719 630.59375 506.675781 630.25 507.214844 630.339844 C 507.273438 630.351562 515.488281 631.113281 523.117188 609.894531 L 534.464844 578.332031 C 534.589844 577.984375 534.886719 577.726562 535.246094 577.652344 C 535.605469 577.570312 535.980469 577.683594 536.234375 577.949219 L 558.746094 601.0625 C 559.121094 601.445312 559.152344 602.046875 558.824219 602.46875 L 550.0625 613.675781 C 549.886719 613.898438 549.628906 614.042969 549.347656 614.078125 C 549.0625 614.109375 548.785156 614.03125 548.558594 613.855469 L 543.226562 609.664062 L 542.507812 623.175781 C 542.492188 623.394531 542.414062 623.605469 542.277344 623.777344 L 513.082031 660.941406 C 512.898438 661.175781 512.628906 661.320312 512.332031 661.347656 C 512.304688 661.351562 512.273438 661.351562 512.242188 661.351562 Z M 507.878906 632.457031 C 507.011719 636.039062 506.539062 638.867188 506.394531 641.316406 C 505.859375 650.445312 510.304688 656.527344 512.164062 658.652344 L 540.390625 622.722656 L 541.203125 607.496094 C 541.226562 607.097656 541.464844 606.742188 541.828125 606.578125 C 542.191406 606.414062 542.617188 606.464844 542.929688 606.710938 L 549.039062 611.515625 L 556.566406 601.886719 L 535.898438 580.664062 L 525.128906 610.617188 C 518.261719 629.710938 510.601562 632.210938 507.878906 632.457031 Z M 507.878906 632.457031"/><path fill="#19055B" d="M 512.242188 661.351562 C 511.980469 661.351562 511.726562 661.253906 511.527344 661.074219 C 511.199219 660.78125 503.527344 653.703125 504.265625 641.1875 C 504.589844 635.625 506.507812 629 508.363281 622.589844 C 510.554688 615.023438 512.816406 607.203125 512.347656 601.433594 L 499.621094 587.753906 C 499.234375 587.335938 499.242188 586.683594 499.640625 586.277344 L 521.527344 563.925781 C 521.730469 563.71875 521.988281 563.5625 522.296875 563.605469 C 522.585938 563.609375 522.859375 563.726562 523.0625 563.933594 L 558.753906 601.066406 C 559.121094 601.453125 559.152344 602.046875 558.824219 602.46875 L 550.0625 613.675781 C 549.886719 613.898438 549.628906 614.042969 549.347656 614.078125 C 549.0625 614.109375 548.785156 614.03125 548.558594 613.855469 L 543.226562 609.664062 L 542.507812 623.175781 C 542.492188 623.394531 542.414062 623.605469 542.277344 623.777344 L 513.082031 660.941406 C 512.898438 661.175781 512.628906 661.320312 512.332031 661.347656 C 512.304688 661.351562 512.273438 661.351562 512.242188 661.351562 Z M 501.882812 587.042969 L 514.164062 600.246094 C 514.320312 600.414062 514.417969 600.632812 514.441406 600.863281 C 515.078125 607.078125 512.707031 615.265625 510.417969 623.1875 C 508.59375 629.480469 506.707031 635.992188 506.394531 641.3125 C 505.859375 650.445312 510.304688 656.527344 512.164062 658.652344 L 540.390625 622.722656 L 541.203125 607.496094 C 541.226562 607.097656 541.464844 606.742188 541.828125 606.578125 C 542.191406 606.414062 542.617188 606.464844 542.929688 606.710938 L 549.039062 611.515625 L 556.570312 601.882812 L 522.285156 566.210938 Z M 501.882812 587.042969"/><path fill="#19055B" d="M 507.09375 653.398438 C 506.859375 653.398438 506.628906 653.324219 506.433594 653.171875 C 505.96875 652.804688 505.886719 652.132812 506.253906 651.667969 L 550.941406 594.78125 C 551.308594 594.320312 551.976562 594.238281 552.441406 594.601562 C 552.90625 594.96875 552.988281 595.640625 552.621094 596.105469 L 507.933594 652.992188 C 507.722656 653.257812 507.410156 653.398438 507.09375 653.398438 Z M 507.09375 653.398438"/><path fill="#19055B" d="M 384.285156 244.148438 C 383.574219 244.148438 382.984375 243.964844 382.496094 243.601562 C 380.527344 242.148438 381.671875 238.667969 381.8125 238.277344 C 381.957031 237.855469 382.347656 237.570312 382.792969 237.5625 L 393.328125 237.300781 C 393.800781 237.28125 394.210938 237.582031 394.363281 238.023438 C 394.515625 238.464844 394.363281 238.953125 393.988281 239.230469 C 389.496094 242.550781 386.378906 244.148438 384.285156 244.148438 Z M 383.632812 239.679688 C 383.4375 240.585938 383.398438 241.617188 383.761719 241.882812 C 383.894531 241.980469 385.050781 242.613281 389.824219 239.527344 Z M 383.632812 239.679688"/><path fill="#19055B" d="M 401.558594 244.117188 C 399.828125 244.117188 398.277344 243.832031 396.90625 243.265625 C 393.273438 241.765625 392.367188 238.796875 392.328125 238.671875 C 392.234375 238.351562 392.296875 238.007812 392.492188 237.738281 C 392.6875 237.472656 392.996094 237.308594 393.328125 237.300781 L 417.433594 236.707031 C 417.953125 236.671875 418.363281 237.019531 418.492188 237.496094 C 418.621094 237.972656 418.40625 238.472656 417.976562 238.710938 C 411.421875 242.308594 405.925781 244.117188 401.558594 244.117188 Z M 395.140625 239.394531 C 395.65625 240.042969 396.488281 240.792969 397.785156 241.316406 C 400.273438 242.320312 404.808594 242.582031 412.742188 238.960938 Z M 393.355469 238.367188 L 393.363281 238.367188 Z M 393.355469 238.367188"/><path fill="#19055B" d="M 387.886719 255.222656 C 387.769531 255.222656 387.652344 255.207031 387.539062 255.164062 C 386.980469 254.972656 386.683594 254.363281 386.875 253.804688 L 392.34375 238.019531 C 392.539062 237.460938 393.144531 237.164062 393.703125 237.359375 C 394.261719 237.550781 394.558594 238.160156 394.363281 238.71875 L 388.898438 254.503906 C 388.742188 254.945312 388.328125 255.222656 387.886719 255.222656 Z M 387.886719 255.222656"/><path fill="#19055B" d="M 339.277344 310.472656 C 339.21875 310.472656 339.160156 310.46875 339.097656 310.457031 L 333.621094 309.539062 C 333.039062 309.4375 332.644531 308.886719 332.742188 308.304688 C 332.839844 307.722656 333.386719 307.332031 333.976562 307.429688 L 339.453125 308.351562 C 340.035156 308.449219 340.425781 309 340.328125 309.582031 C 340.242188 310.105469 339.789062 310.472656 339.277344 310.472656 Z M 339.277344 310.472656"/><path fill="#19055B" d="M 512.4375 397.429688 C 512.320312 397.429688 512.199219 397.410156 512.085938 397.371094 C 511.527344 397.175781 511.234375 396.566406 511.425781 396.007812 C 511.476562 395.871094 516.25 382.246094 521.742188 371.472656 C 522.007812 370.945312 522.648438 370.734375 523.179688 371.003906 C 523.703125 371.273438 523.914062 371.917969 523.644531 372.441406 C 518.21875 383.089844 513.492188 396.578125 513.445312 396.714844 C 513.289062 397.152344 512.878906 397.429688 512.4375 397.429688 Z M 512.4375 397.429688"/><path fill="#19055B" d="M 523.300781 394.234375 C 523.277344 394.234375 523.257812 394.234375 523.234375 394.234375 C 522.644531 394.199219 522.195312 393.691406 522.234375 393.101562 C 522.242188 392.957031 523.128906 378.488281 523.292969 373.378906 C 523.308594 372.789062 523.824219 372.320312 524.394531 372.347656 C 524.984375 372.367188 525.445312 372.859375 525.425781 373.449219 C 525.261719 378.589844 524.375 393.085938 524.363281 393.234375 C 524.332031 393.800781 523.859375 394.234375 523.300781 394.234375 Z M 523.300781 394.234375"/><path fill="#19055B" d="M 382.683594 202.1875 C 382.015625 202.1875 381.410156 202.019531 380.875 201.675781 C 378.140625 199.925781 378.542969 194.296875 378.804688 190.574219 C 378.863281 189.777344 378.910156 189.089844 378.910156 188.644531 C 378.910156 188.054688 379.390625 187.578125 379.980469 187.578125 C 380.570312 187.578125 381.046875 188.054688 381.046875 188.644531 C 381.046875 189.167969 380.996094 189.890625 380.9375 190.726562 C 380.75 193.351562 380.363281 198.808594 382.023438 199.875 C 382.722656 200.316406 383.890625 199.839844 384.753906 199.363281 C 385.273438 199.078125 385.921875 199.265625 386.207031 199.785156 C 386.492188 200.300781 386.304688 200.949219 385.785156 201.234375 C 384.636719 201.871094 383.597656 202.1875 382.683594 202.1875 Z M 382.683594 202.1875"/><path fill="#19055B" d="M 395.269531 192.335938 C 395.28125 192.671875 395.246094 193 395.164062 193.3125 C 395.085938 193.628906 394.960938 193.90625 394.800781 194.152344 C 394.640625 194.398438 394.449219 194.585938 394.230469 194.722656 C 394.015625 194.859375 393.785156 194.933594 393.542969 194.941406 C 393.304688 194.949219 393.070312 194.894531 392.84375 194.773438 C 392.617188 194.652344 392.414062 194.476562 392.234375 194.242188 C 392.058594 194.011719 391.917969 193.742188 391.8125 193.433594 C 391.710938 193.125 391.652344 192.800781 391.640625 192.464844 C 391.628906 192.128906 391.664062 191.800781 391.746094 191.488281 C 391.824219 191.171875 391.945312 190.894531 392.109375 190.648438 C 392.269531 190.40625 392.460938 190.214844 392.679688 190.078125 C 392.894531 189.941406 393.125 189.867188 393.367188 189.859375 C 393.605469 189.851562 393.839844 189.90625 394.066406 190.027344 C 394.292969 190.148438 394.496094 190.328125 394.675781 190.558594 C 394.851562 190.792969 394.992188 191.0625 395.097656 191.371094 C 395.199219 191.675781 395.257812 192 395.269531 192.335938 Z M 395.269531 192.335938"/><path fill="#19055B" d="M 390.113281 180.332031 C 389.949219 180.332031 389.78125 180.296875 389.621094 180.214844 C 389.097656 179.941406 388.894531 179.296875 389.167969 178.773438 C 390.203125 176.777344 392.222656 175.472656 394.441406 175.367188 C 396.675781 175.269531 398.792969 176.367188 400.015625 178.253906 C 400.335938 178.75 400.191406 179.414062 399.695312 179.734375 C 399.203125 180.050781 398.539062 179.910156 398.21875 179.414062 C 397.402344 178.148438 396 177.433594 394.542969 177.503906 C 393.0625 177.574219 391.761719 178.417969 391.0625 179.757812 C 390.871094 180.125 390.5 180.332031 390.113281 180.332031 Z M 390.113281 180.332031"/><path fill="#19055B" d="M 384.847656 212.082031 C 381.234375 212.082031 377.769531 210.320312 375.609375 207.324219 C 375.261719 206.84375 375.371094 206.175781 375.847656 205.828125 C 376.328125 205.484375 376.996094 205.59375 377.339844 206.070312 C 379.304688 208.792969 382.4375 210.222656 385.722656 209.902344 C 389.007812 209.578125 391.800781 207.5625 393.195312 204.511719 C 393.441406 203.976562 394.070312 203.738281 394.609375 203.984375 C 395.144531 204.226562 395.382812 204.863281 395.136719 205.398438 C 393.449219 209.09375 389.921875 211.636719 385.929688 212.027344 C 385.566406 212.0625 385.207031 212.082031 384.847656 212.082031 Z M 384.847656 212.082031"/><path fill="#19055B" d="M 368.195312 181.378906 C 368.027344 181.378906 367.859375 181.339844 367.703125 181.257812 C 367.179688 180.988281 366.976562 180.339844 367.25 179.816406 C 368.285156 177.824219 370.304688 176.519531 372.519531 176.414062 C 374.746094 176.296875 376.875 177.414062 378.09375 179.300781 C 378.414062 179.796875 378.273438 180.457031 377.777344 180.777344 C 377.285156 181.097656 376.625 180.957031 376.300781 180.460938 C 375.480469 179.191406 374.097656 178.472656 372.625 178.550781 C 371.140625 178.621094 369.839844 179.464844 369.144531 180.804688 C 368.953125 181.167969 368.582031 181.378906 368.195312 181.378906 Z M 368.195312 181.378906"/><path fill="#19055B" d="M 394.199219 190.097656 C 394.199219 190.097656 396.101562 191.648438 398.171875 190.265625 C 398.171875 190.265625 396.675781 194.207031 392.675781 191.199219 Z M 394.199219 190.097656"/><path fill="#19055B" d="M 375.386719 193 C 375.40625 193.335938 375.378906 193.660156 375.304688 193.976562 C 375.230469 194.292969 375.113281 194.574219 374.957031 194.824219 C 374.800781 195.070312 374.617188 195.265625 374.402344 195.40625 C 374.1875 195.546875 373.957031 195.625 373.71875 195.640625 C 373.476562 195.652344 373.242188 195.601562 373.011719 195.484375 C 372.785156 195.367188 372.578125 195.195312 372.394531 194.96875 C 372.210938 194.738281 372.066406 194.472656 371.957031 194.164062 C 371.847656 193.859375 371.78125 193.539062 371.761719 193.203125 C 371.746094 192.863281 371.773438 192.539062 371.847656 192.222656 C 371.921875 191.90625 372.039062 191.625 372.195312 191.375 C 372.351562 191.128906 372.535156 190.933594 372.75 190.792969 C 372.964844 190.652344 373.195312 190.574219 373.433594 190.5625 C 373.675781 190.546875 373.910156 190.597656 374.136719 190.714844 C 374.367188 190.832031 374.574219 191.003906 374.757812 191.234375 C 374.941406 191.460938 375.085938 191.730469 375.195312 192.035156 C 375.304688 192.339844 375.371094 192.660156 375.386719 193 Z M 375.386719 193"/><path fill="#19055B" d="M 372.625 190.875 C 372.625 190.875 370.871094 192.589844 368.683594 191.40625 C 368.683594 191.40625 370.53125 195.191406 374.242188 191.835938 Z M 372.625 190.875"/><path fill="#19055B" d="M 351.207031 502.570312 C 348.886719 502.570312 346.738281 502.1875 344.765625 501.425781 C 337.953125 498.785156 335.921875 492.566406 335.835938 492.304688 C 335.660156 491.742188 335.96875 491.140625 336.53125 490.960938 C 337.097656 490.785156 337.695312 491.097656 337.875 491.65625 C 337.910156 491.765625 339.746094 497.207031 345.570312 499.445312 C 351.5625 501.746094 359.550781 500.039062 369.316406 494.367188 C 369.828125 494.070312 370.480469 494.246094 370.777344 494.753906 C 371.074219 495.265625 370.898438 495.917969 370.390625 496.214844 C 363.101562 500.445312 356.679688 502.570312 351.207031 502.570312 Z M 351.207031 502.570312"/><path fill="#19055B" d="M 414.695312 501.085938 C 410.464844 501.085938 407.046875 499.375 406.859375 499.277344 C 406.332031 499.007812 406.125 498.367188 406.394531 497.839844 C 406.660156 497.3125 407.304688 497.105469 407.828125 497.371094 C 407.882812 497.402344 413.34375 500.121094 418.5 498.339844 C 421.4375 497.328125 423.757812 495.035156 425.398438 491.527344 C 425.648438 490.992188 426.285156 490.761719 426.820312 491.011719 C 427.351562 491.261719 427.582031 491.898438 427.332031 492.433594 C 425.433594 496.492188 422.691406 499.160156 419.179688 500.367188 C 417.65625 500.890625 416.128906 501.085938 414.695312 501.085938 Z M 414.695312 501.085938"/><path fill="#19055B" d="M 522.707031 398.433594 L 508.703125 483.769531 L 537.484375 478.820312 L 513.496094 480.613281 Z M 522.707031 398.433594"/><path fill="#19055B" d="M 508.703125 484.839844 C 508.421875 484.839844 508.152344 484.730469 507.949219 484.527344 C 507.707031 484.285156 507.59375 483.9375 507.648438 483.597656 L 521.65625 398.257812 C 521.75 397.6875 522.277344 397.292969 522.855469 397.375 C 523.429688 397.453125 523.835938 397.976562 523.769531 398.550781 L 514.699219 479.449219 L 537.40625 477.753906 C 537.984375 477.710938 538.476562 478.125 538.546875 478.691406 C 538.617188 479.257812 538.226562 479.777344 537.667969 479.875 L 508.882812 484.824219 C 508.824219 484.832031 508.761719 484.839844 508.703125 484.839844 Z M 516.984375 439.914062 L 510 482.460938 L 515.320312 481.546875 L 513.574219 481.675781 C 513.261719 481.699219 512.945312 481.582031 512.726562 481.351562 C 512.503906 481.125 512.398438 480.808594 512.433594 480.492188 Z M 516.984375 439.914062"/><path fill="#19055B" d="M 292.3125 338.144531 L 274.734375 422.792969 L 278.664062 423.726562 L 293.910156 343.539062 L 298.558594 343.53125 L 298.726562 339.667969 Z M 292.3125 338.144531"/><path fill="#19055B" d="M 278.660156 424.796875 C 278.578125 424.796875 278.496094 424.785156 278.414062 424.765625 L 274.488281 423.835938 C 273.921875 423.699219 273.570312 423.144531 273.6875 422.578125 L 291.265625 337.925781 C 291.328125 337.644531 291.496094 337.398438 291.738281 337.242188 C 291.984375 337.089844 292.28125 337.039062 292.558594 337.105469 L 298.972656 338.625 C 299.472656 338.746094 299.816406 339.199219 299.792969 339.714844 L 299.625 343.578125 C 299.597656 344.152344 299.128906 344.601562 298.558594 344.601562 L 294.792969 344.605469 L 279.710938 423.925781 C 279.65625 424.214844 279.488281 424.464844 279.242188 424.625 C 279.070312 424.738281 278.867188 424.796875 278.660156 424.796875 Z M 275.988281 421.996094 L 277.820312 422.429688 L 292.859375 343.339844 C 292.953125 342.835938 293.394531 342.46875 293.90625 342.46875 L 297.535156 342.464844 L 297.621094 340.503906 L 293.136719 339.4375 Z M 275.988281 421.996094"/><path fill="#19055B" d="M 422.792969 288.105469 L 434.015625 320.8125 L 440.0625 320.8125 Z M 422.792969 288.105469"/><path fill="#19055B" d="M 434.015625 321.882812 C 433.558594 321.882812 433.15625 321.59375 433.003906 321.160156 L 421.78125 288.453125 C 421.601562 287.925781 421.859375 287.347656 422.367188 287.125 C 422.882812 286.90625 423.476562 287.113281 423.738281 287.605469 L 441.003906 320.3125 C 441.179688 320.644531 441.167969 321.042969 440.976562 321.363281 C 440.78125 321.683594 440.433594 321.882812 440.0625 321.882812 Z M 428.261719 300.753906 L 434.777344 319.746094 L 438.289062 319.746094 Z M 428.261719 300.753906"/><path fill="#19055B" d="M 522.292969 564.675781 L 503.847656 590.726562 L 500.40625 587.023438 Z M 522.292969 564.675781"/><path fill="#19055B" d="M 503.847656 591.792969 C 503.550781 591.792969 503.269531 591.671875 503.066406 591.453125 L 499.621094 587.753906 C 499.234375 587.335938 499.242188 586.683594 499.640625 586.277344 L 521.527344 563.925781 C 521.917969 563.527344 522.550781 563.496094 522.976562 563.855469 C 523.402344 564.210938 523.484375 564.835938 523.164062 565.292969 L 504.71875 591.34375 C 504.53125 591.605469 504.238281 591.769531 503.917969 591.792969 C 503.894531 591.792969 503.871094 591.792969 503.847656 591.792969 Z M 501.882812 587.042969 L 503.734375 589.035156 L 513.660156 575.015625 Z M 501.882812 587.042969"/><path fill="#19055B" d="M 320.511719 619.539062 L 351.050781 626.875 L 351.578125 623.09375 Z M 320.511719 619.539062"/><path fill="#19055B" d="M 351.050781 627.945312 C 350.964844 627.945312 350.882812 627.933594 350.800781 627.914062 L 320.265625 620.578125 C 319.714844 620.449219 319.363281 619.910156 319.460938 619.355469 C 319.558594 618.796875 320.089844 618.417969 320.632812 618.476562 L 351.699219 622.03125 C 351.984375 622.066406 352.246094 622.210938 352.421875 622.441406 C 352.597656 622.667969 352.675781 622.957031 352.632812 623.242188 L 352.105469 627.023438 C 352.066406 627.324219 351.898438 627.589844 351.652344 627.757812 C 351.472656 627.882812 351.261719 627.945312 351.050781 627.945312 Z M 337.796875 622.59375 L 350.152344 625.5625 L 350.367188 624.03125 Z M 337.796875 622.59375"/></svg>